<?xml version="1.0" encoding="utf-8"?>
<!-- Generator: Adobe Illustrator 18.1.0, SVG Export Plug-In . SVG Version: 6.00 Build 0)  -->
<svg version="1.1" id="Gopher" xmlns="http://www.w3.org/2000/svg" xmlns:xlink="http://www.w3.org/1999/xlink" x="0px" y="0px"
	 viewBox="0 0 215.6 281.6" enable-background="new 0 0 215.6 281.6" xml:space="preserve">
<g>
	<!-- Box Body Base -->
	<rect x="45" y="80" width="125" height="120" fill="#D4A574" stroke="#B8956A" stroke-width="2"/>

	<!-- Box Inner Walls (for depth) -->
	<rect x="47" y="82" width="121" height="116" fill="#E8C49C"/>

	<!-- Left Box Flap (opened) -->
	<path fill="#D4A574" stroke="#B8956A" stroke-width="2" d="M45,80 L15,60 L15,120 L45,140 Z"/>
	<path fill="#C19660" d="M17,62 L17,118 L43,138 L43,82 Z"/>

	<!-- Right Box Flap (opened) -->
	<path fill="#D4A574" stroke="#B8956A" stroke-width="2" d="M170,80 L200,60 L200,120 L170,140 Z"/>
	<path fill="#C19660" d="M172,82 L172,138 L198,118 L198,62 Z"/>

	<!-- Back Box Flap (opened) -->
	<path fill="#D4A574" stroke="#B8956A" stroke-width="2" d="M45,80 L65,50 L150,50 L170,80 Z"/>
	<path fill="#C19660" d="M47,78 L65,52 L150,52 L168,78 Z"/>

	<!-- Front Box Flap (opened) -->
	<path fill="#D4A574" stroke="#B8956A" stroke-width="2" d="M45,200 L65,230 L150,230 L170,200 Z"/>
	<path fill="#C19660" d="M47,202 L65,228 L150,228 L168,202 Z"/>

	<!-- Gopher Head (centered in box) -->
	<ellipse fill="#8CC5E7" cx="107.8" cy="120" rx="50" ry="40"/>

	<!-- Ears (adjusted position) -->
	<ellipse fill="#3C89BF" cx="75" cy="95" rx="8" ry="12"/>
	<ellipse fill="#6BB6FF" cx="75" cy="95" rx="4" ry="6"/>
	<ellipse fill="#3C89BF" cx="140" cy="95" rx="8" ry="12"/>
	<ellipse fill="#6BB6FF" cx="140" cy="95" rx="4" ry="6"/>

	<!-- Left Eye -->
	<g>
		<circle fill="#E0DEDC" cx="85" cy="115" r="18"/>
		<circle fill="#111212" cx="85" cy="115" r="11"/>
		<circle fill="#FFFFFF" cx="88" cy="111" r="3.6"/>
	</g>

	<!-- Right Eye -->
	<g>
		<circle fill="#E0DEDC" cx="130" cy="115" r="18"/>
		<circle fill="#111212" cx="130" cy="115" r="11"/>
		<circle fill="#FFFFFF" cx="127" cy="111" r="3.6"/>
	</g>

	<!-- Nose and Mouth -->
	<g>
		<ellipse fill="#B8937F" cx="107.8" cy="135" rx="8" ry="5"/>
		<ellipse fill="#111212" cx="107.8" cy="135" rx="5" ry="3"/>
		<rect fill="#E0DEDC" x="103" y="145" width="10" height="8" rx="2"/>
	</g>
</g>
</svg>
